<svg width="22" height="20" viewBox="0 0 22 20" fill="none" xmlns="http://www.w3.org/2000/svg">
<path fill-rule="evenodd" clip-rule="evenodd" d="M10.7769 11.9649C10.1079 11.9649 9.44086 11.7439 8.88286 11.3019L4.39786 7.68593C4.07486 7.42593 4.02486 6.95293 4.28386 6.63093C4.54486 6.30993 5.01686 6.25893 5.33886 6.51793L9.81986 10.1299C10.3829 10.5759 11.1759 10.5759 11.7429 10.1259L16.1789 6.51993C16.5009 6.25693 16.9729 6.30693 17.2349 6.62893C17.4959 6.94993 17.4469 7.42193 17.1259 7.68393L12.6819 11.2959C12.1199 11.7419 11.4479 11.9649 10.7769 11.9649Z" fill="#0C063A"/>
<mask id="mask0_8_8405" style="mask-type:luminance" maskUnits="userSpaceOnUse" x="0" y="0" width="22" height="21">
<path fill-rule="evenodd" clip-rule="evenodd" d="M0 0.500122H21.4999V20.0001H0V0.500122Z" fill="white"/>
</mask>
<g mask="url(#mask0_8_8405)">
<path fill-rule="evenodd" clip-rule="evenodd" d="M5.83888 18.5001H15.6589C15.6609 18.4981 15.6689 18.5001 15.6749 18.5001C16.8159 18.5001 17.8279 18.0921 18.6039 17.3171C19.5049 16.4201 19.9999 15.1311 19.9999 13.6881V6.82012C19.9999 4.02712 18.1739 2.00012 15.6589 2.00012H5.84088C3.32588 2.00012 1.49988 4.02712 1.49988 6.82012V13.6881C1.49988 15.1311 1.99588 16.4201 2.89588 17.3171C3.67188 18.0921 4.68488 18.5001 5.82488 18.5001H5.83888ZM5.82188 20.0001C4.27888 20.0001 2.90088 19.4401 1.83688 18.3801C0.651878 17.1981 -0.00012207 15.5321 -0.00012207 13.6881V6.82012C-0.00012207 3.21712 2.51088 0.500122 5.84088 0.500122H15.6589C18.9889 0.500122 21.4999 3.21712 21.4999 6.82012V13.6881C21.4999 15.5321 20.8479 17.1981 19.6629 18.3801C18.5999 19.4391 17.2209 20.0001 15.6749 20.0001H15.6589H5.84088H5.82188Z" fill="#0C063A"/>
</g>
</svg>
