<svg width="184" height="59" viewBox="0 0 184 59" fill="none" xmlns="http://www.w3.org/2000/svg">
<g clip-path="url(#clip0_4003_83)">
<path d="M1.92063 8.06977C3.20484 5.59246 5.03456 3.66755 7.41546 2.28937C9.80204 0.916876 12.6034 0.227783 15.831 0.227783C18.604 0.227783 21.0872 0.751721 23.2749 1.7939C25.4626 2.83608 27.2412 4.31108 28.6106 6.21321C29.9857 8.11533 30.8949 10.3364 31.3495 12.8763H20.7633C20.2803 11.8171 19.5927 10.997 18.7063 10.4047C17.8141 9.81244 16.797 9.52199 15.6549 9.52199C13.9672 9.52199 12.6319 10.1598 11.6488 11.4241C10.6658 12.6941 10.1771 14.4026 10.1771 16.5496C10.1771 18.6966 10.6658 20.3994 11.6488 21.6694C12.6319 22.9394 13.9615 23.5715 15.6549 23.5715C16.797 23.5715 17.8141 23.2754 18.7063 22.6888C19.5984 22.1022 20.2803 21.2764 20.7633 20.2172H31.3495C30.8949 22.7571 29.9857 24.9782 28.6106 26.8803C27.2355 28.7824 25.4569 30.2574 23.2749 31.2996C21.0872 32.3418 18.6097 32.8657 15.831 32.8657C12.6034 32.8657 9.79636 32.1766 7.41546 30.8041C5.03456 29.4316 3.19916 27.501 1.92063 25.0237C0.636423 22.5464 0 19.716 0 16.5439C0 13.3718 0.642105 10.5471 1.92063 8.06408V8.06977Z" fill="white"/>
<path d="M34.56 30.827C32.0427 29.409 30.0425 27.4442 28.5651 24.9327C27.0877 22.4212 26.349 19.5965 26.349 16.4529C26.349 13.3092 27.0877 10.4845 28.5651 7.97305C30.0425 5.46726 32.0427 3.50819 34.56 2.10153C37.0773 0.694867 39.8446 -0.00561523 42.8619 -0.00561523C45.8792 -0.00561523 48.6352 0.694867 51.1411 2.10153C53.647 3.50819 55.6244 5.46726 57.0905 7.97305C58.5508 10.4845 59.2839 13.3092 59.2839 16.4529C59.2839 19.5965 58.5508 22.4212 57.0905 24.9327C55.6244 27.4442 53.6356 29.4033 51.1183 30.827C48.6011 32.2508 45.8451 32.9569 42.8619 32.9569C39.8787 32.9569 37.0773 32.2451 34.56 30.827ZM47.476 21.6467C48.5613 20.3596 49.1068 18.6341 49.1068 16.4529C49.1068 14.2717 48.5613 12.5006 47.476 11.2192C46.3906 9.93213 44.8507 9.28859 42.8619 9.28859C40.8731 9.28859 39.2877 9.93213 38.2024 11.2192C37.117 12.5063 36.5715 14.2489 36.5715 16.4529C36.5715 18.6568 37.117 20.3596 38.2024 21.6467C39.2877 22.9338 40.839 23.5716 42.8619 23.5716C44.8848 23.5716 46.3906 22.9281 47.476 21.6467Z" fill="white"/>
<path d="M93.5314 0.546631L82.7634 32.6435H69.7792L59.0168 0.546631H69.694L76.2969 22.6261L82.8543 0.546631H93.5314Z" fill="white"/>
<path d="M93.3779 0.546631V18.6339C93.3779 20.1146 93.7018 21.2878 94.3496 22.1477C94.9974 23.0076 96.0487 23.4405 97.492 23.4405C98.9353 23.4405 100.009 23.0076 100.702 22.1477C101.396 21.2878 101.742 20.1146 101.742 18.6339V0.546631H111.738V18.6339C111.738 21.6864 111.101 24.2947 109.84 26.4531C108.573 28.6115 106.839 30.2403 104.64 31.328C102.436 32.4157 99.9808 32.9625 97.2647 32.9625C94.5485 32.9625 92.1449 32.4157 90.0481 31.328C87.9513 30.2403 86.3148 28.6229 85.1385 26.4759C83.9623 24.3289 83.3713 21.7149 83.3713 18.6339V0.546631H93.3666H93.3779Z" fill="white"/>
<path d="M121.784 25.0237H131.467V32.6378H111.743V0.546631H121.784V25.0294V25.0237Z" fill="white"/>
<path d="M137.251 30.827C134.734 29.409 132.734 27.4442 131.257 24.9327C129.779 22.4212 129.04 19.5965 129.04 16.4529C129.04 13.3092 129.779 10.4845 131.257 7.97305C132.734 5.46726 134.734 3.50819 137.251 2.10153C139.769 0.694867 142.536 -0.00561523 145.553 -0.00561523C148.571 -0.00561523 151.327 0.694867 153.832 2.10153C156.338 3.50819 158.316 5.46726 159.782 7.97305C161.242 10.4845 161.975 13.3092 161.975 16.4529C161.975 19.5965 161.242 22.4212 159.782 24.9327C158.316 27.4442 156.327 29.4033 153.81 30.827C151.292 32.2508 148.537 32.9569 145.553 32.9569C142.57 32.9569 139.769 32.2451 137.251 30.827ZM150.167 21.6467C151.253 20.3596 151.798 18.6341 151.798 16.4529C151.798 14.2717 151.253 12.5006 150.167 11.2192C149.082 9.93213 147.542 9.28859 145.553 9.28859C143.564 9.28859 141.979 9.93213 140.894 11.2192C139.808 12.5063 139.263 14.2489 139.263 16.4529C139.263 18.6568 139.808 20.3596 140.894 21.6467C141.979 22.9338 143.53 23.5716 145.553 23.5716C147.576 23.5716 149.082 22.9281 150.167 21.6467Z" fill="white"/>
<path d="M172.965 32.6435L166.947 21.1283H166.902V32.6435H156.861V0.546631H171.789C174.38 0.546631 176.602 1.00792 178.437 1.93051C180.278 2.8531 181.659 4.10599 182.574 5.69489C183.494 7.28379 183.955 9.07202 183.955 11.0653C183.955 13.2123 183.358 15.1144 182.17 16.7773C180.983 18.4403 179.267 19.6362 177.039 20.3595L184.006 32.6435H172.965ZM166.902 14.4196H170.885C171.851 14.4196 172.573 14.2032 173.056 13.7647C173.539 13.3262 173.783 12.6371 173.783 11.7031C173.783 10.8602 173.533 10.1939 173.033 9.70986C172.539 9.22578 171.817 8.98659 170.885 8.98659H166.902V14.4253V14.4196Z" fill="white"/>
<path d="M5.016 49.648C5.24 49.256 5.568 48.936 6 48.688C6.432 48.44 6.924 48.316 7.476 48.316C8.068 48.316 8.6 48.456 9.072 48.736C9.544 49.016 9.916 49.412 10.188 49.924C10.46 50.428 10.596 51.016 10.596 51.688C10.596 52.352 10.46 52.944 10.188 53.464C9.916 53.984 9.54 54.388 9.06 54.676C8.588 54.964 8.06 55.108 7.476 55.108C6.908 55.108 6.408 54.984 5.976 54.736C5.552 54.488 5.232 54.172 5.016 53.788V55H3.924V46.12H5.016V49.648ZM9.48 51.688C9.48 51.192 9.38 50.76 9.18 50.392C8.98 50.024 8.708 49.744 8.364 49.552C8.028 49.36 7.656 49.264 7.248 49.264C6.848 49.264 6.476 49.364 6.132 49.564C5.796 49.756 5.524 50.04 5.316 50.416C5.116 50.784 5.016 51.212 5.016 51.7C5.016 52.196 5.116 52.632 5.316 53.008C5.524 53.376 5.796 53.66 6.132 53.86C6.476 54.052 6.848 54.148 7.248 54.148C7.656 54.148 8.028 54.052 8.364 53.86C8.708 53.66 8.98 53.376 9.18 53.008C9.38 52.632 9.48 52.192 9.48 51.688ZM17.6974 48.424L13.7374 58.096H12.6094L13.9054 54.928L11.2534 48.424H12.4654L14.5294 53.752L16.5694 48.424H17.6974Z" fill="white"/>
<path d="M27.8529 45.1442C28.7791 45.1442 29.444 45.3834 29.8474 45.8561C30.2509 46.3345 30.4497 47.0349 30.4497 47.9689V48.9826C30.4497 49.9166 30.2509 50.6228 29.8474 51.0955C29.444 51.5738 28.7791 51.8073 27.8529 51.8073H22.8524V54.4441C22.8524 54.6434 22.7615 54.7459 22.5854 54.7459H21.2784C21.0909 54.7459 21 54.6434 21 54.4441V45.5429C21 45.2695 21.1193 45.1328 21.3637 45.1328H27.8472L27.8529 45.1442ZM22.8524 50.0077H27.4779C27.887 50.0077 28.1768 49.9052 28.3473 49.7059C28.5177 49.5066 28.603 49.199 28.603 48.7833V48.2594C28.603 47.8493 28.5177 47.5418 28.3473 47.3368C28.1768 47.1318 27.887 47.0349 27.4779 47.0349H23.0115C22.9093 47.0349 22.8524 47.0919 22.8524 47.2001V50.002V50.0077Z" fill="white"/>
<path d="M33.3251 45.1441C33.5012 45.1441 33.5921 45.2466 33.5921 45.446V50.9245C33.5921 51.289 33.6205 51.5965 33.6717 51.8357C33.7228 52.0806 33.8081 52.2685 33.9331 52.4109C34.0524 52.5533 34.2172 52.6558 34.4217 52.7127C34.6263 52.7697 34.8877 52.8039 35.2002 52.8039H40.0927C40.2689 52.8039 40.3598 52.9064 40.3598 53.1057V54.4497C40.3598 54.649 40.2689 54.7516 40.0927 54.7516H35.1264C34.5127 54.7516 33.9956 54.6889 33.5694 54.5579C33.1432 54.4326 32.7966 54.2219 32.5238 53.9315C32.2568 53.641 32.0579 53.2652 31.9329 52.8039C31.8079 52.3426 31.7454 51.7788 31.7454 51.1238V45.4403C31.7454 45.2409 31.8363 45.1384 32.0238 45.1384H33.3307L33.3251 45.1441Z" fill="white"/>
<path d="M50.1619 45.1441C50.3437 45.1441 50.4403 45.2466 50.4403 45.446V46.7501C50.4403 46.9494 50.3494 47.0519 50.1619 47.0519H44.883C44.5705 47.0519 44.3091 47.0804 44.1045 47.1431C43.8999 47.2 43.7352 47.3025 43.6101 47.4449C43.4851 47.5873 43.3999 47.7809 43.3488 48.0201C43.2976 48.265 43.2749 48.5611 43.2749 48.9199V49.0566H50.0994C50.2755 49.0566 50.3664 49.1591 50.3664 49.3584V50.4461C50.3664 50.6455 50.2755 50.748 50.0994 50.748H43.2749V50.9815C43.2749 51.3403 43.2976 51.6364 43.3488 51.8813C43.3942 52.1262 43.4851 52.3141 43.6101 52.4565C43.7352 52.5989 43.8999 52.7014 44.1045 52.7583C44.3091 52.8153 44.5705 52.8494 44.883 52.8494H50.1619C50.3437 52.8494 50.4403 52.9519 50.4403 53.1513V54.4554C50.4403 54.6547 50.3494 54.7572 50.1619 54.7572H44.8489C44.2352 54.7572 43.7181 54.6946 43.2919 54.5636C42.8658 54.4383 42.5191 54.2276 42.2464 53.9372C41.9736 53.6467 41.7804 53.2709 41.6554 52.8096C41.5304 52.3483 41.4679 51.7845 41.4679 51.1295V48.7661C41.4679 48.1055 41.5304 47.5474 41.6554 47.0918C41.7804 46.6362 41.9793 46.2603 42.2464 45.9699C42.5134 45.6795 42.8658 45.4687 43.2919 45.3378C43.7181 45.2068 44.2352 45.1384 44.8489 45.1384H50.1619V45.1441Z" fill="white"/>
<path d="M61.3617 45.144C61.4753 45.144 61.5378 45.1896 61.5492 45.275C61.5606 45.3605 61.5378 45.4402 61.481 45.5028L57.7704 49.7741L61.6458 54.4041C61.7026 54.4667 61.7254 54.5465 61.714 54.6319C61.7026 54.7173 61.6401 54.7629 61.5265 54.7629H59.8729C59.7763 54.7629 59.6968 54.7515 59.6456 54.723C59.5945 54.6945 59.5376 54.6433 59.4865 54.5692L56.5033 51.0099L53.5087 54.5692C53.4519 54.6433 53.4007 54.6945 53.3439 54.723C53.2927 54.7515 53.2132 54.7629 53.1052 54.7629H51.5369C51.4346 54.7629 51.3721 54.7173 51.3608 54.6319C51.3494 54.5465 51.3721 54.4667 51.4289 54.4041L55.4009 49.7057L51.8153 45.5028C51.7699 45.4402 51.7471 45.3661 51.7585 45.275C51.7642 45.1896 51.8267 45.144 51.9403 45.144H53.5939C53.6905 45.144 53.7644 45.1611 53.8212 45.1896C53.878 45.2181 53.9292 45.2693 53.9803 45.332L56.6112 48.5212L59.4013 45.332C59.4467 45.2693 59.5036 45.2181 59.5604 45.1896C59.6172 45.1554 59.6911 45.144 59.7877 45.144H61.356H61.3617Z" fill="white"/>
<path d="M64.4189 45.144C64.595 45.144 64.6859 45.2466 64.6859 45.4459V54.4553C64.6859 54.6547 64.595 54.7572 64.4189 54.7572H63.1119C62.9244 54.7572 62.8335 54.6547 62.8335 54.4553V45.4459C62.8335 45.2466 62.9244 45.144 63.1119 45.144H64.4189Z" fill="white"/>
<path d="M75.1414 45.144C75.3176 45.144 75.4085 45.2466 75.4085 45.4459V46.7899C75.4085 47.0006 75.3176 47.1031 75.1414 47.1031H69.7659C69.4534 47.1031 69.192 47.1316 68.9874 47.1942C68.7829 47.2512 68.6181 47.3537 68.4987 47.4961C68.3794 47.6384 68.2942 47.8264 68.2373 48.0656C68.1862 48.3048 68.1578 48.6066 68.1578 48.9711V50.9188C68.1578 51.2832 68.1862 51.5908 68.2373 51.8299C68.2885 52.0748 68.3737 52.2628 68.4987 52.4051C68.6181 52.5475 68.7829 52.65 68.9874 52.707C69.192 52.7639 69.4534 52.7981 69.7659 52.7981H75.1414C75.3176 52.7981 75.4085 52.9006 75.4085 53.0999V54.4439C75.4085 54.6433 75.3176 54.7458 75.1414 54.7458H69.692C69.0783 54.7458 68.5612 54.6831 68.1351 54.5521C67.7089 54.4269 67.3623 54.2161 67.0895 53.9257C66.8168 53.6353 66.6236 53.2594 66.4986 52.7981C66.3735 52.3368 66.311 51.773 66.311 51.1181V48.7547C66.311 48.094 66.3735 47.5359 66.4986 47.0803C66.6236 46.6247 66.8224 46.2489 67.0895 45.9584C67.3566 45.668 67.7089 45.4573 68.1351 45.3263C68.5612 45.1953 69.0783 45.127 69.692 45.127H75.1414V45.144Z" fill="white"/>
<path d="M78.3803 45.144C78.5565 45.144 78.6474 45.2466 78.6474 45.4459V50.9244C78.6474 51.2889 78.6758 51.5965 78.727 51.8356C78.7781 52.0805 78.869 52.2685 78.9884 52.4108C79.1077 52.5532 79.2725 52.6557 79.477 52.7127C79.6816 52.7696 79.943 52.8038 80.2555 52.8038H83.6024C83.9149 52.8038 84.1763 52.7753 84.3809 52.7127C84.5855 52.6557 84.7503 52.5532 84.8696 52.4108C84.9889 52.2685 85.0741 52.0748 85.1253 51.8356C85.1707 51.5908 85.1992 51.2889 85.1992 50.9244V45.4459C85.1992 45.2466 85.2901 45.144 85.4662 45.144H86.7845C86.9607 45.144 87.0516 45.2466 87.0516 45.4459V51.1295C87.0516 51.7901 86.9891 52.3482 86.8698 52.8095C86.7504 53.2708 86.5515 53.6467 86.2845 53.9371C86.0174 54.2275 85.6651 54.4326 85.2333 54.5635C84.8014 54.6945 84.2786 54.7572 83.6706 54.7572H80.193C79.5793 54.7572 79.0622 54.6945 78.636 54.5635C78.2099 54.4383 77.8633 54.2275 77.5905 53.9371C77.3234 53.6467 77.1245 53.2708 76.9995 52.8095C76.8745 52.3482 76.812 51.7844 76.812 51.1295V45.4459C76.812 45.2466 76.9029 45.144 77.0904 45.144H78.3974H78.3803Z" fill="white"/>
<path d="M97.1377 45.144C97.3139 45.144 97.4048 45.2466 97.4048 45.4459V46.75C97.4048 46.9494 97.3139 47.0519 97.1377 47.0519H91.086C90.853 47.0519 90.6883 47.1202 90.5917 47.2569C90.4951 47.3936 90.4496 47.5815 90.4496 47.8207V48.2877C90.4496 48.8002 90.6598 49.0565 91.0747 49.0565H95.6035C96.3024 49.0565 96.8309 49.2615 97.1889 49.6659C97.5412 50.0759 97.723 50.6568 97.723 51.4199V52.519C97.723 53.1854 97.5468 53.7264 97.2059 54.1364C96.8593 54.5465 96.3195 54.7572 95.5864 54.7572H88.8926C88.7108 54.7572 88.6142 54.6547 88.6142 54.4553V53.1512C88.6142 52.9519 88.7051 52.8494 88.8926 52.8494H95.2341C95.4671 52.8494 95.6319 52.781 95.7285 52.6443C95.8251 52.5077 95.8762 52.3197 95.8762 52.0805V51.5167C95.8762 51.0042 95.666 50.7479 95.2512 50.7479H90.7224C90.0234 50.7479 89.495 50.5429 89.1427 50.1385C88.7904 49.7342 88.6085 49.1476 88.6085 48.3902V47.3879C88.6085 46.7216 88.779 46.1805 89.1256 45.7648C89.4722 45.3548 90.0121 45.144 90.7451 45.144H97.1491H97.1377Z" fill="white"/>
<path d="M130.546 24.9327C135.404 24.9327 139.342 20.9857 139.342 16.1169C139.342 11.248 135.404 7.30103 130.546 7.30103C125.688 7.30103 121.75 11.248 121.75 16.1169C121.75 20.9857 125.688 24.9327 130.546 24.9327Z" fill="url(#paint0_linear_4003_83)"/>
<path d="M59.0169 24.9327C63.8749 24.9327 67.8131 20.9857 67.8131 16.1169C67.8131 11.248 63.8749 7.30103 59.0169 7.30103C54.1588 7.30103 50.2206 11.248 50.2206 16.1169C50.2206 20.9857 54.1588 24.9327 59.0169 24.9327Z" fill="url(#paint1_linear_4003_83)"/>
</g>
<defs>
<linearGradient id="paint0_linear_4003_83" x1="130.546" y1="24.9327" x2="130.546" y2="7.30672" gradientUnits="userSpaceOnUse">
<stop stop-color="#964FFF"/>
<stop offset="1" stop-color="#7F1AFF"/>
</linearGradient>
<linearGradient id="paint1_linear_4003_83" x1="59.0169" y1="90.5047" x2="59.0169" y2="89.9352" gradientUnits="userSpaceOnUse">
<stop stop-color="#964FFF"/>
<stop offset="1" stop-color="#7F1AFF"/>
</linearGradient>
<clipPath id="clip0_4003_83">
<rect width="184" height="59" fill="white"/>
</clipPath>
</defs>
</svg>
