<svg width="199" height="64" viewBox="0 0 199 64" fill="none" xmlns="http://www.w3.org/2000/svg">
<g clip-path="url(#clip0_6_24)">
<path d="M2.07721 8.7537C3.46611 6.06644 5.44498 3.97841 8.01998 2.48342C10.6011 0.994622 13.6309 0.247131 17.1216 0.247131C20.1206 0.247131 22.8062 0.815471 25.1723 1.94597C27.5383 3.07647 29.4619 4.67648 30.943 6.7398C32.4302 8.80312 33.4135 11.2124 33.9052 13.9676H22.4559C21.9336 12.8186 21.19 11.929 20.2312 11.2865C19.2664 10.644 18.1663 10.329 16.9311 10.329C15.1058 10.329 13.6616 11.0209 12.5984 12.3923C11.5353 13.7699 11.0067 15.6232 11.0067 17.9522C11.0067 20.2811 11.5353 22.1282 12.5984 23.5058C13.6616 24.8834 15.0997 25.5691 16.9311 25.5691C18.1663 25.5691 19.2664 25.2479 20.2312 24.6116C21.1961 23.9753 21.9336 23.0796 22.4559 21.9305H33.9052C33.4135 24.6857 32.4302 27.095 30.943 29.1583C29.4558 31.2216 27.5322 32.8216 25.1723 33.9521C22.8062 35.0826 20.1268 35.651 17.1216 35.651C13.6309 35.651 10.595 34.9035 8.01998 33.4147C5.44498 31.9259 3.45996 29.8317 2.07721 27.1444C0.688305 24.4572 0 21.3869 0 17.946C0 14.505 0.69445 11.441 2.07721 8.74752V8.7537Z" fill="#3D3D3D"/>
<path d="M37.3774 33.4394C34.6549 31.9012 32.4917 29.7699 30.8938 27.0456C29.296 24.3212 28.4971 21.2572 28.4971 17.8471C28.4971 14.4371 29.296 11.373 30.8938 8.64866C32.4917 5.93052 34.6549 3.80542 37.3774 2.27955C40.0999 0.753681 43.0928 -0.00616455 46.3561 -0.00616455C49.6194 -0.00616455 52.6 0.753681 55.3102 2.27955C58.0204 3.80542 60.1591 5.93052 61.7447 8.64866C63.3241 11.373 64.1169 14.4371 64.1169 17.8471C64.1169 21.2572 63.3241 24.3212 61.7447 27.0456C60.1591 29.7699 58.0081 31.895 55.2857 33.4394C52.5632 34.9838 49.5826 35.7498 46.3561 35.7498C43.1297 35.7498 40.0999 34.9776 37.3774 33.4394ZM51.3463 23.4811C52.5201 22.085 53.1101 20.2131 53.1101 17.8471C53.1101 15.4811 52.5201 13.5599 51.3463 12.1699C50.1725 10.7738 48.5071 10.0757 46.3561 10.0757C44.2052 10.0757 42.4906 10.7738 41.3168 12.1699C40.1429 13.566 39.553 15.4564 39.553 17.8471C39.553 20.2379 40.1429 22.085 41.3168 23.4811C42.4906 24.8772 44.1683 25.5691 46.3561 25.5691C48.544 25.5691 50.1725 24.8711 51.3463 23.4811Z" fill="#3D3D3D"/>
<path d="M101.156 0.593079L89.5104 35.4101H75.4677L63.828 0.593079H75.3755L82.5167 24.5437L89.6087 0.593079H101.156Z" fill="#3D3D3D"/>
<path d="M100.99 0.593079V20.2132C100.99 21.8193 101.341 23.0919 102.041 24.0247C102.742 24.9576 103.879 25.4271 105.44 25.4271C107.001 25.4271 108.162 24.9576 108.912 24.0247C109.662 23.0919 110.037 21.8193 110.037 20.2132V0.593079H120.847V20.2132C120.847 23.5244 120.158 26.3537 118.794 28.695C117.424 31.0363 115.549 32.8031 113.171 33.983C110.786 35.163 108.131 35.756 105.194 35.756C102.256 35.756 99.6567 35.163 97.389 33.983C95.1212 32.8031 93.3513 31.0487 92.0792 28.7197C90.807 26.3908 90.1679 23.5552 90.1679 20.2132V0.593079H100.978H100.99Z" fill="#3D3D3D"/>
<path d="M131.712 27.1444H142.184V35.4039H120.853V0.593079H131.712V27.1506V27.1444Z" fill="#3D3D3D"/>
<path d="M148.44 33.4394C145.718 31.9012 143.555 29.7699 141.957 27.0456C140.359 24.3212 139.56 21.2572 139.56 17.8471C139.56 14.4371 140.359 11.373 141.957 8.64866C143.555 5.93052 145.718 3.80542 148.44 2.27955C151.163 0.753681 154.156 -0.00616455 157.419 -0.00616455C160.682 -0.00616455 163.663 0.753681 166.373 2.27955C169.083 3.80542 171.222 5.93052 172.808 8.64866C174.387 11.373 175.18 14.4371 175.18 17.8471C175.18 21.2572 174.387 24.3212 172.808 27.0456C171.222 29.7699 169.071 31.895 166.349 33.4394C163.626 34.9838 160.645 35.7498 157.419 35.7498C154.193 35.7498 151.163 34.9776 148.44 33.4394ZM162.409 23.4811C163.583 22.085 164.173 20.2131 164.173 17.8471C164.173 15.4811 163.583 13.5599 162.409 12.1699C161.235 10.7738 159.57 10.0757 157.419 10.0757C155.268 10.0757 153.553 10.7738 152.38 12.1699C151.206 13.566 150.616 15.4564 150.616 17.8471C150.616 20.2379 151.206 22.085 152.38 23.4811C153.553 24.8772 155.231 25.5691 157.419 25.5691C159.607 25.5691 161.235 24.8711 162.409 23.4811Z" fill="#3D3D3D"/>
<path d="M187.065 35.4101L180.557 22.9189H180.508V35.4101H169.649V0.593079H185.793C188.596 0.593079 190.998 1.09346 192.983 2.09424C194.975 3.09501 196.468 4.45408 197.457 6.17763C198.453 7.90119 198.951 9.84096 198.951 12.0031C198.951 14.3321 198.306 16.3954 197.021 18.1993C195.731 20.0031 193.881 21.3004 191.472 22.085L199.006 35.4101H187.065ZM180.508 15.6417H184.816C185.861 15.6417 186.641 15.407 187.164 14.9313C187.686 14.4556 187.95 13.7081 187.95 12.695C187.95 11.7807 187.68 11.0579 187.139 10.5328C186.604 10.0078 185.824 9.74829 184.816 9.74829H180.508V15.6479V15.6417Z" fill="#3D3D3D"/>
<path d="M6.36573 52.1225C6.58973 51.7305 6.91773 51.4105 7.34973 51.1625C7.78173 50.9145 8.27373 50.7905 8.82573 50.7905C9.41773 50.7905 9.94973 50.9305 10.4217 51.2105C10.8937 51.4905 11.2657 51.8865 11.5377 52.3985C11.8097 52.9025 11.9457 53.4905 11.9457 54.1625C11.9457 54.8265 11.8097 55.4185 11.5377 55.9385C11.2657 56.4585 10.8897 56.8625 10.4097 57.1505C9.93773 57.4385 9.40973 57.5825 8.82573 57.5825C8.25773 57.5825 7.75773 57.4585 7.32573 57.2105C6.90173 56.9625 6.58173 56.6465 6.36573 56.2625V57.4745H5.27373V48.5945H6.36573V52.1225ZM10.8297 54.1625C10.8297 53.6665 10.7297 53.2345 10.5297 52.8665C10.3297 52.4985 10.0577 52.2185 9.71373 52.0265C9.37773 51.8345 9.00573 51.7385 8.59773 51.7385C8.19773 51.7385 7.82573 51.8385 7.48173 52.0385C7.14573 52.2305 6.87373 52.5145 6.66573 52.8905C6.46573 53.2585 6.36573 53.6865 6.36573 54.1745C6.36573 54.6705 6.46573 55.1065 6.66573 55.4825C6.87373 55.8505 7.14573 56.1345 7.48173 56.3345C7.82573 56.5265 8.19773 56.6225 8.59773 56.6225C9.00573 56.6225 9.37773 56.5265 9.71373 56.3345C10.0577 56.1345 10.3297 55.8505 10.5297 55.4825C10.7297 55.1065 10.8297 54.6665 10.8297 54.1625ZM19.0471 50.8985L15.0871 60.5705H13.9591L15.2551 57.4025L12.6031 50.8985H13.8151L15.8791 56.2265L17.9191 50.8985H19.0471Z" fill="#3D3D3D"/>
<path d="M33.7061 48.9699C34.7079 48.9699 35.4269 49.2294 35.8632 49.7421C36.2996 50.2611 36.5147 51.0209 36.5147 52.034V53.1336C36.5147 54.1468 36.2996 54.9128 35.8632 55.4255C35.4269 55.9445 34.7079 56.1977 33.7061 56.1977H28.298V59.058C28.298 59.2742 28.1997 59.3854 28.0092 59.3854H26.5957C26.3929 59.3854 26.2946 59.2742 26.2946 59.058V49.4024C26.2946 49.1058 26.4236 48.9576 26.6879 48.9576H33.7L33.7061 48.9699ZM28.298 54.2456H33.3005C33.743 54.2456 34.0564 54.1344 34.2408 53.9182C34.4252 53.702 34.5173 53.3684 34.5173 52.9174V52.3491C34.5173 51.9043 34.4252 51.5707 34.2408 51.3483C34.0564 51.1259 33.743 51.0209 33.3005 51.0209H28.4701C28.3595 51.0209 28.298 51.0827 28.298 51.2001V54.2394V54.2456Z" fill="#3D3D3D"/>
<path d="M39.6244 48.9699C39.8149 48.9699 39.9132 49.0811 39.9132 49.2973V55.2402C39.9132 55.6356 39.9439 55.9691 39.9992 56.2286C40.0546 56.4942 40.1467 56.6981 40.2819 56.8525C40.411 57.007 40.5892 57.1182 40.8105 57.18C41.0317 57.2417 41.3144 57.2788 41.6524 57.2788H46.9437C47.1343 57.2788 47.2326 57.39 47.2326 57.6062V59.0641C47.2326 59.2803 47.1343 59.3915 46.9437 59.3915H41.5725C40.9088 59.3915 40.3495 59.3236 39.8886 59.1815C39.4277 59.0456 39.0528 58.817 38.7578 58.502C38.469 58.1869 38.2539 57.7792 38.1187 57.2788C37.9835 56.7784 37.9159 56.1668 37.9159 55.4564V49.2912C37.9159 49.0749 38.0142 48.9637 38.217 48.9637H39.6305L39.6244 48.9699Z" fill="#3D3D3D"/>
<path d="M57.8336 48.9699C58.0303 48.9699 58.1348 49.0811 58.1348 49.2973V50.712C58.1348 50.9282 58.0365 51.0394 57.8336 51.0394H52.1244C51.7864 51.0394 51.5037 51.0703 51.2825 51.1383C51.0612 51.2 50.883 51.3112 50.7478 51.4657C50.6126 51.6201 50.5204 51.8302 50.4651 52.0896C50.4098 52.3552 50.3852 52.6765 50.3852 53.0657V53.2139H57.766C57.9566 53.2139 58.0549 53.3251 58.0549 53.5413V54.7213C58.0549 54.9375 57.9566 55.0487 57.766 55.0487H50.3852V55.302C50.3852 55.6912 50.4098 56.0124 50.4651 56.278C50.5143 56.5437 50.6126 56.7475 50.7478 56.902C50.883 57.0564 51.0612 57.1676 51.2825 57.2294C51.5037 57.2912 51.7864 57.3282 52.1244 57.3282H57.8336C58.0303 57.3282 58.1348 57.4394 58.1348 57.6556V59.0703C58.1348 59.2865 58.0365 59.3977 57.8336 59.3977H52.0875C51.4238 59.3977 50.8646 59.3298 50.4036 59.1877C49.9427 59.0518 49.5678 58.8232 49.2729 58.5081C48.9779 58.1931 48.7689 57.7854 48.6337 57.285C48.4985 56.7846 48.4309 56.173 48.4309 55.4626V52.8989C48.4309 52.1823 48.4985 51.5769 48.6337 51.0827C48.7689 50.5885 48.984 50.1807 49.2729 49.8657C49.5617 49.5506 49.9427 49.322 50.4036 49.18C50.8646 49.0379 51.4238 48.9637 52.0875 48.9637H57.8336V48.9699Z" fill="#3D3D3D"/>
<path d="M69.9467 48.9698C70.0696 48.9698 70.1372 49.0193 70.1495 49.1119C70.1618 49.2046 70.1372 49.2911 70.0757 49.359L66.0627 53.9922L70.254 59.0146C70.3154 59.0826 70.34 59.1691 70.3277 59.2617C70.3154 59.3544 70.2478 59.4038 70.1249 59.4038H68.3365C68.2321 59.4038 68.146 59.3915 68.0907 59.3606C68.0354 59.3297 67.9739 59.2741 67.9186 59.1938L64.6922 55.3328L61.4535 59.1938C61.392 59.2741 61.3367 59.3297 61.2753 59.3606C61.2199 59.3915 61.1339 59.4038 61.0171 59.4038H59.321C59.2103 59.4038 59.1427 59.3544 59.1305 59.2617C59.1182 59.1691 59.1427 59.0826 59.2042 59.0146L63.5 53.9181L59.6221 49.359C59.5729 49.2911 59.5484 49.2108 59.5606 49.1119C59.5668 49.0193 59.6344 48.9698 59.7573 48.9698H61.5457C61.6501 48.9698 61.73 48.9884 61.7915 49.0193C61.8529 49.0502 61.9083 49.1058 61.9636 49.1737L64.809 52.6332L67.8264 49.1737C67.8756 49.1058 67.9371 49.0502 67.9985 49.0193C68.06 48.9822 68.1399 48.9698 68.2443 48.9698H69.9405H69.9467Z" fill="#3D3D3D"/>
<path d="M73.2529 48.9698C73.4435 48.9698 73.5418 49.081 73.5418 49.2973V59.0702C73.5418 59.2865 73.4435 59.3977 73.2529 59.3977H71.8395C71.6367 59.3977 71.5383 59.2865 71.5383 59.0702V49.2973C71.5383 49.081 71.6367 48.9698 71.8395 48.9698H73.2529Z" fill="#3D3D3D"/>
<path d="M84.8496 48.9699C85.0401 48.9699 85.1385 49.0811 85.1385 49.2973V50.7552C85.1385 50.9838 85.0401 51.095 84.8496 51.095H79.0359C78.6979 51.095 78.4152 51.1259 78.1939 51.1938C77.9727 51.2556 77.7945 51.3668 77.6654 51.5212C77.5364 51.6757 77.4442 51.8795 77.3827 52.139C77.3274 52.3985 77.2967 52.7259 77.2967 53.1212V55.234C77.2967 55.6294 77.3274 55.9629 77.3827 56.2224C77.438 56.488 77.5302 56.6919 77.6654 56.8463C77.7945 57.0008 77.9727 57.112 78.1939 57.1738C78.4152 57.2355 78.6979 57.2726 79.0359 57.2726H84.8496C85.0401 57.2726 85.1385 57.3838 85.1385 57.6V59.0579C85.1385 59.2741 85.0401 59.3853 84.8496 59.3853H78.956C78.2923 59.3853 77.733 59.3174 77.2721 59.1753C76.8112 59.0394 76.4363 58.8108 76.1413 58.4958C75.8463 58.1807 75.6374 57.773 75.5022 57.2726C75.367 56.7722 75.2994 56.1606 75.2994 55.4502V52.8865C75.2994 52.1699 75.367 51.5645 75.5022 51.0703C75.6374 50.5761 75.8525 50.1683 76.1413 49.8533C76.4302 49.5382 76.8112 49.3097 77.2721 49.1676C77.733 49.0255 78.2923 48.9514 78.956 48.9514H84.8496V48.9699Z" fill="#3D3D3D"/>
<path d="M88.3526 48.9698C88.5431 48.9698 88.6415 49.081 88.6415 49.2973V55.2401C88.6415 55.6355 88.6722 55.9691 88.7275 56.2285C88.7828 56.4942 88.8811 56.698 89.0102 56.8525C89.1392 57.0069 89.3175 57.1181 89.5387 57.1799C89.76 57.2417 90.0426 57.2787 90.3807 57.2787H94.0004C94.3384 57.2787 94.6211 57.2478 94.8424 57.1799C95.0636 57.1181 95.2418 57.0069 95.3709 56.8525C95.4999 56.698 95.5921 56.488 95.6474 56.2285C95.6966 55.9629 95.7273 55.6355 95.7273 55.2401V49.2973C95.7273 49.081 95.8256 48.9698 96.0162 48.9698H97.4419C97.6324 48.9698 97.7308 49.081 97.7308 49.2973V55.4625C97.7308 56.1791 97.6632 56.7845 97.5341 57.2849C97.4051 57.7853 97.19 58.193 96.9011 58.5081C96.6123 58.8231 96.2313 59.0455 95.7642 59.1876C95.2971 59.3297 94.7317 59.3977 94.0742 59.3977H90.3131C89.6493 59.3977 89.0901 59.3297 88.6292 59.1876C88.1682 59.0517 87.7934 58.8231 87.4984 58.5081C87.2095 58.193 86.9944 57.7853 86.8592 57.2849C86.724 56.7845 86.6564 56.1729 86.6564 55.4625V49.2973C86.6564 49.081 86.7548 48.9698 86.9576 48.9698H88.3711H88.3526Z" fill="#3D3D3D"/>
<path d="M108.639 48.9698C108.83 48.9698 108.928 49.081 108.928 49.2973V50.7119C108.928 50.9281 108.83 51.0394 108.639 51.0394H102.094C101.842 51.0394 101.664 51.1135 101.56 51.2617C101.455 51.41 101.406 51.6139 101.406 51.8733V52.3799C101.406 52.9359 101.633 53.2139 102.082 53.2139H106.98C107.736 53.2139 108.307 53.4363 108.695 53.8749C109.076 54.3197 109.272 54.9498 109.272 55.7776V56.9699C109.272 57.6926 109.082 58.2795 108.713 58.7243C108.338 59.1691 107.754 59.3977 106.962 59.3977H99.722C99.5254 59.3977 99.4209 59.2865 99.4209 59.0702V57.6556C99.4209 57.4394 99.5192 57.3282 99.722 57.3282H106.58C106.832 57.3282 107.011 57.254 107.115 57.1058C107.22 56.9575 107.275 56.7536 107.275 56.4942V55.8826C107.275 55.3266 107.048 55.0486 106.599 55.0486H101.701C100.945 55.0486 100.373 54.8262 99.9924 54.3876C99.6114 53.949 99.4147 53.3127 99.4147 52.4911V51.4038C99.4147 50.681 99.5991 50.0942 99.974 49.6432C100.349 49.1984 100.933 48.9698 101.725 48.9698H108.652H108.639Z" fill="#3D3D3D"/>
<path d="M141.189 27.0455C146.443 27.0455 150.702 22.7641 150.702 17.4826C150.702 12.2011 146.443 7.91968 141.189 7.91968C135.934 7.91968 131.675 12.2011 131.675 17.4826C131.675 22.7641 135.934 27.0455 141.189 27.0455Z" fill="url(#paint0_linear_6_24)"/>
<path d="M63.828 27.0455C69.0821 27.0455 73.3413 22.7641 73.3413 17.4826C73.3413 12.2011 69.0821 7.91968 63.828 7.91968C58.5739 7.91968 54.3146 12.2011 54.3146 17.4826C54.3146 22.7641 58.5739 27.0455 63.828 27.0455Z" fill="url(#paint1_linear_6_24)"/>
</g>
<defs>
<linearGradient id="paint0_linear_6_24" x1="141.189" y1="27.0455" x2="141.189" y2="7.92585" gradientUnits="userSpaceOnUse">
<stop stop-color="#964FFF"/>
<stop offset="1" stop-color="#7F1AFF"/>
</linearGradient>
<linearGradient id="paint1_linear_6_24" x1="63.828" y1="295.753" x2="63.828" y2="295.135" gradientUnits="userSpaceOnUse">
<stop stop-color="#964FFF"/>
<stop offset="1" stop-color="#7F1AFF"/>
</linearGradient>
<clipPath id="clip0_6_24">
<rect width="199" height="64" fill="white"/>
</clipPath>
</defs>
</svg>
