<svg width="58" height="58" viewBox="0 0 58 58" fill="none" xmlns="http://www.w3.org/2000/svg">
<rect width="58" height="58" rx="12" fill="#F5F6FF"/>
<rect width="29" height="29" transform="translate(14.5 14.5)" fill="#F5F6FF"/>
<path d="M34.0629 16.9167H23.9371C19.5388 16.9167 16.9167 19.5388 16.9167 23.9371V34.0509C16.9167 38.4613 19.5388 41.0834 23.9371 41.0834H34.0509C38.4492 41.0834 41.0713 38.4613 41.0713 34.0629V23.9371C41.0834 19.5388 38.4613 16.9167 34.0629 16.9167ZM25.5079 34.9209C25.5079 35.2592 25.2421 35.525 24.9038 35.525H21.5325C21.1942 35.525 20.9284 35.2592 20.9284 34.9209V29.3384C20.9284 28.5771 21.5446 27.9609 22.3059 27.9609H24.9038C25.2421 27.9609 25.5079 28.2267 25.5079 28.565V34.9209ZM31.2838 34.9209C31.2838 35.2592 31.0179 35.525 30.6796 35.525H27.3084C26.97 35.525 26.7042 35.2592 26.7042 34.9209V23.8525C26.7042 23.0913 27.3204 22.475 28.0817 22.475H29.9184C30.6796 22.475 31.2959 23.0913 31.2959 23.8525V34.9209H31.2838ZM37.0717 34.9209C37.0717 35.2592 36.8059 35.525 36.4675 35.525H33.0963C32.7579 35.525 32.4921 35.2592 32.4921 34.9209V30.6313C32.4921 30.2929 32.7579 30.0271 33.0963 30.0271H35.6942C36.4554 30.0271 37.0717 30.6434 37.0717 31.4046V34.9209Z" fill="#8220FF"/>
</svg>
