<svg width="40" height="40" viewBox="0 0 40 40" fill="none" xmlns="http://www.w3.org/2000/svg">
<circle cx="20" cy="20" r="20" fill="#605BFF"/>
<path d="M15.5078 13.625V25H13.1719V13.625H15.5078ZM19.7656 18.3516V25H17.5156V16.5469H19.625L19.7656 18.3516ZM19.4375 20.4766H18.8281C18.8281 19.8516 18.9089 19.2891 19.0703 18.7891C19.2318 18.2839 19.4583 17.8542 19.75 17.5C20.0417 17.1406 20.388 16.8672 20.7891 16.6797C21.1953 16.487 21.6484 16.3906 22.1484 16.3906C22.5443 16.3906 22.9062 16.4479 23.2344 16.5625C23.5625 16.6771 23.8438 16.8594 24.0781 17.1094C24.3177 17.3594 24.5 17.6901 24.625 18.1016C24.7552 18.513 24.8203 19.0156 24.8203 19.6094V25H22.5547V19.6016C22.5547 19.2266 22.5026 18.9349 22.3984 18.7266C22.2943 18.5182 22.1406 18.3724 21.9375 18.2891C21.7396 18.2005 21.4948 18.1562 21.2031 18.1562C20.901 18.1562 20.638 18.2161 20.4141 18.3359C20.1953 18.4557 20.013 18.6224 19.8672 18.8359C19.7266 19.0443 19.6198 19.2891 19.5469 19.5703C19.474 19.8516 19.4375 20.1536 19.4375 20.4766Z" fill="white"/>
</svg>
