<svg width="24" height="25" viewBox="0 0 24 25" fill="none" xmlns="http://www.w3.org/2000/svg">
<mask id="mask0_8_8394" style="mask-type:luminance" maskUnits="userSpaceOnUse" x="3" y="1" width="19" height="18">
<path fill-rule="evenodd" clip-rule="evenodd" d="M3.00012 1.50012H21.497V18.8481H3.00012V1.50012Z" fill="white"/>
</mask>
<g mask="url(#mask0_8_8394)">
<path fill-rule="evenodd" clip-rule="evenodd" d="M12.2471 3.00012C8.75214 3.00012 6.31614 5.73812 6.31614 8.19512C6.31614 10.2741 5.73914 11.2351 5.22914 12.0831C4.82014 12.7641 4.49714 13.3021 4.49714 14.4711C4.66414 16.3571 5.90914 17.3481 12.2471 17.3481C18.5501 17.3481 19.8341 16.3131 20.0001 14.4061C19.9971 13.3021 19.6741 12.7641 19.2651 12.0831C18.7551 11.2351 18.1781 10.2741 18.1781 8.19512C18.1781 5.73812 15.7421 3.00012 12.2471 3.00012ZM12.2471 18.8481C7.57114 18.8481 3.34514 18.5181 3.00014 14.5351C2.99714 12.8871 3.50014 12.0491 3.94414 11.3111C4.39314 10.5631 4.81614 9.85812 4.81614 8.19512C4.81614 4.96212 7.80213 1.50012 12.2471 1.50012C16.6921 1.50012 19.6781 4.96212 19.6781 8.19512C19.6781 9.85812 20.1011 10.5631 20.5501 11.3111C20.9941 12.0491 21.4971 12.8871 21.4971 14.4711C21.1481 18.5181 16.9231 18.8481 12.2471 18.8481Z" fill="#0C063A"/>
</g>
<path fill-rule="evenodd" clip-rule="evenodd" d="M12.1984 23.0001H12.1964C11.0754 22.9991 10.0144 22.5051 9.20939 21.6081C8.93239 21.3011 8.95739 20.8261 9.26539 20.5501C9.57339 20.2721 10.0474 20.2971 10.3244 20.6061C10.8424 21.1831 11.5074 21.5001 12.1974 21.5001H12.1984C12.8914 21.5001 13.5594 21.1831 14.0784 20.6051C14.3564 20.2981 14.8304 20.2731 15.1374 20.5501C15.4454 20.8271 15.4704 21.3021 15.1934 21.6091C14.3854 22.5061 13.3224 23.0001 12.1984 23.0001Z" fill="#0C063A"/>
</svg>
