<svg width="23" height="25" viewBox="0 0 23 25" fill="none" xmlns="http://www.w3.org/2000/svg">
<path d="M9.94797 24.1083V25L13 23.2732L9.94797 21.5465V22.5554C5.18226 21.692 1.56107 17.5895 1.56107 12.672C1.56107 7.75455 5.21114 2.84114 10.0057 2C4.34708 2.85732 0 6.88712 0 12.672C0 18.4569 4.31821 23.2287 9.94797 24.1083Z" fill="#8220FF"/>
<path d="M13.0535 2.50762C17.8173 3.37239 21.4382 7.45837 21.4382 12.3587C21.4382 17.2591 17.7864 22.1614 12.9916 23C18.6529 22.1453 23 18.1279 23 12.3607C23 6.5936 18.6839 1.83839 13.0535 0.957493V0L10 1.72147L13.0535 3.44294V2.50762Z" fill="#8220FF"/>
</svg>
