<svg width="19" height="19" viewBox="0 0 19 19" fill="none" xmlns="http://www.w3.org/2000/svg">
<path d="M8.7475 16.8125C4.51 16.8125 1.06 13.3625 1.06 9.125C1.06 4.8875 4.51 1.4375 8.7475 1.4375C12.985 1.4375 16.435 4.8875 16.435 9.125C16.435 13.3625 12.985 16.8125 8.7475 16.8125ZM8.7475 2.5625C5.125 2.5625 2.185 5.51 2.185 9.125C2.185 12.74 5.125 15.6875 8.7475 15.6875C12.37 15.6875 15.31 12.74 15.31 9.125C15.31 5.51 12.37 2.5625 8.7475 2.5625Z" fill="#5D5B73"/>
<path d="M16.6224 17.5625C16.4799 17.5625 16.3374 17.51 16.2249 17.3975L14.7249 15.8975C14.5074 15.68 14.5074 15.32 14.7249 15.1025C14.9424 14.885 15.3024 14.885 15.5199 15.1025L17.0199 16.6025C17.2374 16.82 17.2374 17.18 17.0199 17.3975C16.9074 17.51 16.7649 17.5625 16.6224 17.5625Z" fill="#5D5B73"/>
</svg>
